<svg width="450" height="117" viewBox="0 0 450 117" fill="none" xmlns="http://www.w3.org/2000/svg">
<path d="M27.0222 94.104C23.2676 94.104 19.3849 93.7627 15.3742 93.08C11.4489 92.3973 7.86489 91.2453 4.62222 89.624C2.91556 88.7707 1.67822 87.704 0.910223 86.424C0.227556 85.0587 -0.071111 83.6933 0.0142222 82.328C0.0995557 80.9627 0.526222 79.7253 1.29422 78.616C2.14756 77.5067 3.21422 76.7813 4.49422 76.44C5.85956 76.0133 7.35289 76.1413 8.97422 76.824C12.4729 78.2747 15.6729 79.2987 18.5742 79.896C21.4756 80.4933 24.3342 80.792 27.1502 80.792C30.8196 80.792 33.4649 80.2373 35.0862 79.128C36.7929 77.9333 37.6462 76.3973 37.6462 74.52C37.6462 72.8133 37.0916 71.5333 35.9822 70.68C34.8729 69.8267 33.2516 69.2293 31.1182 68.888L17.6782 66.456C12.3876 65.5173 8.29156 63.5973 5.39022 60.696C2.57422 57.7093 1.16622 53.912 1.16622 49.304C1.16622 45.0373 2.36089 41.368 4.75022 38.296C7.13956 35.1387 10.4249 32.7493 14.6062 31.128C18.8729 29.4213 23.6942 28.568 29.0702 28.568C32.9102 28.568 36.4516 28.9093 39.6942 29.592C42.9369 30.2747 46.0516 31.384 49.0382 32.92C50.5742 33.688 51.6409 34.712 52.2382 35.992C52.9209 37.272 53.1342 38.5947 52.8782 39.96C52.7076 41.3253 52.1956 42.5627 51.3422 43.672C50.4889 44.7813 49.3796 45.5067 48.0142 45.848C46.7342 46.1893 45.2409 46.0187 43.5342 45.336C40.8036 44.056 38.2862 43.16 35.9822 42.648C33.6782 42.0507 31.4596 41.752 29.3262 41.752C25.4862 41.752 22.7129 42.392 21.0062 43.672C19.2996 44.8667 18.4462 46.4027 18.4462 48.28C18.4462 49.7307 18.9156 50.968 19.8542 51.992C20.8782 52.9307 22.4142 53.5707 24.4622 53.912L37.9022 56.344C43.4489 57.2827 47.6729 59.16 50.5742 61.976C53.4756 64.7067 54.9262 68.4613 54.9262 73.24C54.9262 79.7253 52.3662 84.8453 47.2462 88.6C42.2116 92.2693 35.4702 94.104 27.0222 94.104Z" fill="currentColor"/>
<path d="M171.326 94.104C166.718 94.104 162.58 93.208 158.91 91.416C155.241 89.624 152.382 87.192 150.334 84.12C148.286 81.048 147.262 77.592 147.262 73.752C147.262 69.144 148.457 65.5173 150.846 62.872C153.236 60.1413 157.118 58.2213 162.494 57.112C167.87 55.9173 174.996 55.32 183.87 55.32H190.654V65.304H183.998C179.646 65.304 176.105 65.56 173.374 66.072C170.729 66.4987 168.809 67.2667 167.614 68.376C166.505 69.4853 165.95 71.0213 165.95 72.984C165.95 75.3733 166.761 77.336 168.382 78.872C170.089 80.408 172.521 81.176 175.678 81.176C178.153 81.176 180.329 80.6213 182.206 79.512C184.169 78.3173 185.705 76.7387 186.814 74.776C187.924 72.728 188.478 70.424 188.478 67.864V53.144C188.478 49.3893 187.625 46.744 185.918 45.208C184.212 43.5867 181.31 42.776 177.214 42.776C174.91 42.776 172.393 43.0747 169.662 43.672C167.017 44.184 164.073 45.08 160.83 46.36C158.953 47.2133 157.289 47.4267 155.838 47C154.388 46.488 153.278 45.6347 152.51 44.44C151.742 43.16 151.358 41.7947 151.358 40.344C151.358 38.808 151.785 37.3573 152.638 35.992C153.492 34.5413 154.9 33.4747 156.862 32.792C160.873 31.1707 164.628 30.0613 168.126 29.464C171.71 28.8667 174.996 28.568 177.982 28.568C184.553 28.568 189.929 29.5493 194.11 31.512C198.377 33.3893 201.577 36.3333 203.71 40.344C205.844 44.2693 206.91 49.3467 206.91 55.576V83.992C206.91 87.1493 206.142 89.5813 204.606 91.288C203.07 92.9947 200.852 93.848 197.95 93.848C195.049 93.848 192.788 92.9947 191.166 91.288C189.63 89.5813 188.862 87.1493 188.862 83.992V79.256L189.758 80.024C189.246 82.9253 188.137 85.4427 186.43 87.576C184.809 89.624 182.718 91.2453 180.158 92.44C177.598 93.5493 174.654 94.104 171.326 94.104Z" fill="currentColor"/>
<path d="M218.512 93.848C215.27 93.848 212.795 92.9947 211.088 91.288C209.382 89.5813 208.528 87.1493 208.528 83.992V38.552C208.528 35.3947 209.339 33.0053 210.96 31.384C212.667 29.6773 215.014 28.824 218 28.824C221.072 28.824 223.419 29.6773 225.04 31.384C226.662 33.0053 227.472 35.3947 227.472 38.552V45.208H226.192C227.216 40.088 229.478 36.12 232.976 33.304C236.475 30.488 240.998 28.9093 246.544 28.568C248.678 28.3973 250.299 28.952 251.408 30.232C252.603 31.4267 253.243 33.432 253.328 36.248C253.499 38.8933 252.944 40.984 251.664 42.52C250.47 44.056 248.422 44.9947 245.52 45.336L242.576 45.592C237.712 46.0187 234.086 47.4267 231.696 49.816C229.392 52.2053 228.24 55.6613 228.24 60.184V83.992C228.24 87.1493 227.387 89.5813 225.68 91.288C224.059 92.9947 221.67 93.848 218.512 93.848Z" fill="currentColor"/>
<path d="M258.206 116.888C255.049 116.888 252.617 116.035 250.91 114.328C249.289 112.707 248.478 110.275 248.478 107.032V38.552C248.478 35.3947 249.289 33.0053 250.91 31.384C252.617 29.6773 254.964 28.824 257.95 28.824C261.108 28.824 263.497 29.6773 265.118 31.384C266.74 33.0053 267.55 35.3947 267.55 38.552V47.256L266.142 42.264C267.422 38.168 269.982 34.8827 273.822 32.408C277.748 29.848 282.228 28.568 287.262 28.568C292.724 28.568 297.502 29.8907 301.598 32.536C305.78 35.1813 309.022 38.936 311.326 43.8C313.63 48.664 314.782 54.4667 314.782 61.208C314.782 67.9493 313.63 73.7947 311.326 78.744C309.022 83.6933 305.822 87.4907 301.726 90.136C297.63 92.7813 292.809 94.104 287.262 94.104C282.313 94.104 277.918 92.9093 274.078 90.52C270.238 88.0453 267.636 84.8453 266.27 80.92H267.806V107.032C267.806 110.275 266.953 112.707 265.246 114.328C263.625 116.035 261.278 116.888 258.206 116.888ZM281.502 79.64C284.233 79.64 286.622 78.9573 288.67 77.592C290.804 76.2267 292.425 74.2213 293.534 71.576C294.729 68.8453 295.326 65.3893 295.326 61.208C295.326 54.9787 294.046 50.4133 291.486 47.512C288.926 44.5253 285.598 43.032 281.502 43.032C278.772 43.032 276.34 43.672 274.206 44.952C272.158 46.232 270.537 48.2373 269.342 50.968C268.148 53.6133 267.55 57.0267 267.55 61.208C267.55 67.4373 268.83 72.088 271.39 75.16C273.95 78.1467 277.321 79.64 281.502 79.64Z" fill="currentColor"/>
<path d="M323.531 93.72C320.374 93.72 317.942 92.824 316.235 91.032C314.614 89.1547 313.803 86.552 313.803 83.224V39.448C313.803 36.0347 314.614 33.432 316.235 31.64C317.942 29.7627 320.374 28.824 323.531 28.824C326.603 28.824 328.95 29.7627 330.571 31.64C332.278 33.432 333.131 36.0347 333.131 39.448V83.224C333.131 86.552 332.321 89.1547 330.699 91.032C329.078 92.824 326.689 93.72 323.531 93.72Z" fill="currentColor"/>
<path d="M358.421 94.104C353.131 94.104 348.736 93.1227 345.237 91.16C341.739 89.1973 339.136 86.2533 337.429 82.328C335.808 78.3173 334.997 73.368 334.997 67.48V38.552C334.997 35.3093 335.808 32.8773 337.429 31.256C339.136 29.6347 341.525 28.824 344.597 28.824C347.669 28.824 350.059 29.6347 351.765 31.256C353.472 32.8773 354.325 35.3093 354.325 38.552V67.992C354.325 71.7467 355.093 74.5627 356.629 76.44C358.165 78.232 360.597 79.128 363.925 79.128C367.595 79.128 370.581 77.848 372.885 75.288C375.275 72.6427 376.469 69.1867 376.469 64.92V38.552C376.469 35.3093 377.28 32.8773 378.901 31.256C380.608 29.6347 382.997 28.824 386.069 28.824C389.227 28.824 391.616 29.6347 393.237 31.256C394.944 32.8773 395.797 35.3093 395.797 38.552V83.992C395.797 90.5627 392.683 93.848 386.453 93.848C383.381 93.848 381.035 92.9947 379.413 91.288C377.792 89.5813 376.981 87.1493 376.981 83.992V75.416L378.901 80.408C377.024 84.76 374.336 88.1307 370.837 90.52C367.339 92.9093 363.2 94.104 358.421 94.104Z" fill="currentColor"/>
<path d="M422.017 94.104C418.263 94.104 414.38 93.7627 410.369 93.08C406.444 92.3973 402.86 91.2453 399.617 89.624C397.911 88.7707 396.673 87.704 395.905 86.424C395.223 85.0587 394.924 83.6933 395.009 82.328C395.095 80.9627 395.521 79.7253 396.289 78.616C397.143 77.5067 398.209 76.7813 399.489 76.44C400.855 76.0133 402.348 76.1413 403.969 76.824C407.468 78.2747 410.668 79.2987 413.569 79.896C416.471 80.4933 419.329 80.792 422.145 80.792C425.815 80.792 428.46 80.2373 430.081 79.128C431.788 77.9333 432.641 76.3973 432.641 74.52C432.641 72.8133 432.087 71.5333 430.977 70.68C429.868 69.8267 428.247 69.2293 426.113 68.888L412.673 66.456C407.383 65.5173 403.287 63.5973 400.385 60.696C397.569 57.7093 396.161 53.912 396.161 49.304C396.161 45.0373 397.356 41.368 399.745 38.296C402.135 35.1387 405.42 32.7493 409.601 31.128C413.868 29.4213 418.689 28.568 424.065 28.568C427.905 28.568 431.447 28.9093 434.689 29.592C437.932 30.2747 441.047 31.384 444.033 32.92C445.569 33.688 446.636 34.712 447.233 35.992C447.916 37.272 448.129 38.5947 447.873 39.96C447.703 41.3253 447.191 42.5627 446.337 43.672C445.484 44.7813 444.375 45.5067 443.009 45.848C441.729 46.1893 440.236 46.0187 438.529 45.336C435.799 44.056 433.281 43.16 430.977 42.648C428.673 42.0507 426.455 41.752 424.321 41.752C420.481 41.752 417.708 42.392 416.001 43.672C414.295 44.8667 413.441 46.4027 413.441 48.28C413.441 49.7307 413.911 50.968 414.849 51.992C415.873 52.9307 417.409 53.5707 419.457 53.912L432.897 56.344C438.444 57.2827 442.668 59.16 445.569 61.976C448.471 64.7067 449.921 68.4613 449.921 73.24C449.921 79.7253 447.361 84.8453 442.241 88.6C437.207 92.2693 430.465 94.104 422.017 94.104Z" fill="currentColor"/>
<path d="M41.2387 37.4461C40.2723 41.4739 42.754 45.5225 46.7818 46.489C50.8096 47.4555 54.8583 44.9737 55.8247 40.9459L48.5317 39.196L41.2387 37.4461ZM53.5317 36.196L56.3161 29.232L53.5317 36.196ZM61.5317 52.6969L68.782 50.7776V50.7776L61.5317 52.6969ZM141.532 51.696L148.792 53.5782V53.5782L141.532 51.696ZM149.532 36.196L152.315 43.1604L152.315 43.1604L149.532 36.196ZM48.5317 39.196C55.8247 40.9459 55.824 40.9491 55.8232 40.9522C55.823 40.9532 55.8222 40.9564 55.8217 40.9584C55.8207 40.9625 55.8197 40.9666 55.8188 40.9706C55.8168 40.9786 55.8149 40.9864 55.813 40.994C55.8092 41.0092 55.8056 41.0236 55.8021 41.0373C55.7952 41.0646 55.7887 41.089 55.7828 41.1108C55.771 41.1542 55.761 41.1883 55.7528 41.215C55.7372 41.2654 55.7247 41.2997 55.7134 41.3278C55.71 41.3361 55.6379 41.53 55.4066 41.817C55.1643 42.1176 54.5245 42.7866 53.3834 43.1509C52.1287 43.5514 51.1272 43.3119 50.7473 43.16L53.5317 36.196L56.3161 29.232C53.9835 28.2994 51.3807 28.0445 48.8223 28.8611C46.3776 29.6415 44.7319 31.1581 43.7278 32.4039C42.7346 33.6361 42.1448 34.8727 41.8142 35.6875C41.6391 36.1189 41.5106 36.4973 41.42 36.7911C41.3742 36.9394 41.3369 37.07 41.3071 37.1795C41.2923 37.2343 41.2792 37.2842 41.2678 37.3286C41.2622 37.3509 41.2569 37.3718 41.2521 37.3914C41.2496 37.4012 41.2473 37.4107 41.2451 37.4198C41.244 37.4243 41.2429 37.4288 41.2418 37.4332C41.2413 37.4354 41.2405 37.4386 41.2403 37.4397C41.2395 37.4429 41.2387 37.4461 48.5317 39.196ZM53.5317 36.196L50.7473 43.16C50.2253 42.9513 50.2217 42.7252 50.5802 43.2313C50.9392 43.7381 51.3867 44.5951 51.8692 45.8897C52.904 48.6663 53.4499 51.4749 54.2814 54.6162L61.5317 52.6969L68.782 50.7776C68.2542 48.784 67.3001 44.3417 65.9248 40.6514C64.6853 37.3257 62.0868 31.5393 56.3161 29.232L53.5317 36.196ZM61.5317 52.6969L54.2814 54.6162C56.5211 63.0766 58.9947 71.9762 61.6744 78.8093C62.9984 82.1853 64.54 85.5022 66.3732 88.0993C67.8976 90.2588 71.2044 94.196 76.5317 94.196V86.696V79.196C79.109 79.196 79.7283 81.0082 78.6277 79.449C77.836 78.3274 76.8151 76.3319 75.639 73.3329C73.3187 67.4163 71.0423 59.3162 68.782 50.7776L61.5317 52.6969ZM76.5317 86.696V94.196C79.8029 94.196 81.9719 92.3652 82.9015 91.4374C83.9477 90.3934 84.7166 89.2042 85.2583 88.261C86.3666 86.331 87.3826 83.8884 88.3013 81.4464C90.1422 76.5536 92.2282 69.8887 94.2648 63.8388C96.3925 57.5182 98.5239 51.6782 100.655 47.4848C101.733 45.3644 102.608 44.0791 103.205 43.425C103.921 42.6421 103.344 43.696 101.532 43.696V36.196V28.696C97.0949 28.696 93.9398 31.328 92.1317 33.3069C90.2059 35.4145 88.6118 38.0745 87.2832 40.6885C84.602 45.9638 82.1709 52.7489 80.0487 59.0532C77.8353 65.6283 75.9838 71.5884 74.2621 76.1643C73.3996 78.4567 72.7281 79.9595 72.2505 80.7912C71.9992 81.2289 72.0006 81.1246 72.3055 80.8203C72.4939 80.6323 73.948 79.196 76.5317 79.196V86.696ZM101.532 36.196V43.696C99.6916 43.696 99.0897 42.613 99.7663 43.3687C100.336 44.0052 101.18 45.2751 102.223 47.3962C104.287 51.5921 106.329 57.4279 108.403 63.7753C110.391 69.8597 112.44 76.527 114.363 81.507C115.318 83.9791 116.409 86.4924 117.658 88.4954C118.277 89.4871 119.146 90.7029 120.326 91.7469C121.484 92.7707 123.598 94.196 126.532 94.196V86.696V79.196C128.653 79.196 129.943 80.2268 130.264 80.5108C130.608 80.8151 130.628 80.9459 130.385 80.5568C129.912 79.798 129.23 78.3661 128.356 76.1038C126.623 71.615 124.798 65.6573 122.661 59.1167C120.61 52.8391 118.277 46.0499 115.684 40.777C114.399 38.1638 112.844 35.4884 110.942 33.3631C109.146 31.3572 105.997 28.696 101.532 28.696V36.196ZM126.532 86.696V94.196C132.385 94.196 135.875 89.5962 137.426 87.1937C139.342 84.2259 140.917 80.4618 142.227 76.7612C144.866 69.3047 147.097 60.1152 148.792 53.5782L141.532 51.696L134.272 49.8138C132.467 56.7768 130.447 65.0873 128.087 71.7558C126.897 75.1177 125.784 77.5724 124.825 79.0577C123.501 81.1084 123.929 79.196 126.532 79.196V86.696ZM141.532 51.696L148.792 53.5782C149.935 49.1679 150.622 46.4939 151.469 44.5822C151.848 43.729 152.124 43.359 152.245 43.2233C152.316 43.1437 152.309 43.1629 152.315 43.1604L149.532 36.196L146.748 29.2316C141.948 31.1499 139.347 34.9148 137.756 38.5031C136.285 41.8225 135.265 45.9819 134.272 49.8138L141.532 51.696ZM149.532 36.196L152.315 43.1604C151.469 43.4985 151.136 42.9982 151.97 43.485C152.289 43.6716 152.597 43.9085 152.833 44.1152C152.944 44.2116 153.019 44.2845 153.051 44.3167C153.067 44.3323 153.071 44.3366 153.062 44.3271C153.057 44.3223 153.049 44.314 153.038 44.3018C153.032 44.2956 153.026 44.2886 153.018 44.2805C153.015 44.2764 153.011 44.2721 153.006 44.2675C153.004 44.2653 153.002 44.2629 153 44.2605C152.999 44.2593 152.997 44.2574 152.997 44.2568C152.995 44.2549 152.993 44.2531 158.532 39.196C164.07 34.139 164.069 34.137 164.067 34.1351C164.066 34.1344 164.064 34.1324 164.063 34.1311C164.061 34.1284 164.058 34.1256 164.055 34.1227C164.05 34.117 164.045 34.1109 164.039 34.1046C164.027 34.0918 164.014 34.0778 164 34.0626C163.971 34.0323 163.938 33.997 163.9 33.9573C163.824 33.8779 163.729 33.7801 163.615 33.6671C163.388 33.4422 163.083 33.1518 162.708 32.8237C161.973 32.1815 160.891 31.3246 159.534 30.5321C157.015 29.0606 152.181 27.0603 146.748 29.2316L149.532 36.196Z" fill="currentColor"/>
<path d="M53.5317 36.196C58.5317 38.1951 60.1724 47.562 61.5317 52.6969C66.0317 69.696 71.0317 86.696 76.5317 86.696C82.0317 86.696 91.0317 36.196 101.532 36.196C112.032 36.196 120.032 86.696 126.532 86.696C133.032 86.696 138.032 65.196 141.532 51.696C143.669 43.4538 144.945 38.0292 149.532 36.196" stroke="var(--logo-accent, #0A0A0A)" stroke-width="3" stroke-linejoin="bevel"/>
<path d="M315.374 16.896C315.374 20.696 320.147 23.2102 323.532 23.196C326.869 23.182 331.886 20.596 331.886 16.896C331.886 13.196 323.694 0 323.694 0C323.694 0 315.374 13.096 315.374 16.896Z" fill="currentColor"/>
</svg>
