<svg width="121" height="91" viewBox="0 0 121 91" fill="none" xmlns="http://www.w3.org/2000/svg">
  <style>
    svg { --wm: #c9a85a; --ac: #1a1612; }
    @media (prefers-color-scheme: light) {
      svg { --wm: #6b2c3e; --ac: #f5ede0; }
    }
    .wave { stroke: var(--wm); }
    .accent { stroke: var(--ac); }
    .flame { fill: var(--wm); }
  </style>
  <path class="wave" d="M7.50172 35.4151C7.50172 35.4151 8.59625 30.8536 12.5017 32.4151C17.5017 34.4142 19.1424 43.7811 20.5017 48.916C25.0017 65.9151 30.0017 82.9151 35.5017 82.9151C41.0017 82.9151 50.0017 32.4151 60.5017 32.4151C71.0017 32.4151 79.0017 82.9151 85.5017 82.9151C92.0017 82.9151 97.0018 61.4151 100.502 47.9151C102.639 39.6729 103.915 34.2483 108.502 32.4151C113.089 30.5819 113.502 35.4151 113.502 35.4151" stroke-width="15" stroke-linecap="round" stroke-linejoin="bevel"/>
  <path class="accent" d="M12.5017 32.4151C17.5017 34.4142 19.1424 43.7811 20.5017 48.9159C25.0017 65.9151 30.0017 82.9151 35.5017 82.9151C41.0017 82.9151 50.0017 32.4151 60.5017 32.4151C71.0017 32.4151 79.0017 82.9151 85.5017 82.9151C92.0017 82.9151 97.0018 61.4151 100.502 47.9151C102.639 39.6729 103.915 34.2483 108.502 32.4151" stroke-width="5" stroke-linejoin="bevel"/>
  <path class="flame" d="M52.5017 16.896C52.5018 20.696 57.2746 23.2102 60.6597 23.196C63.9969 23.182 69.0137 20.596 69.0137 16.896C69.0137 13.196 60.8217 0 60.8217 0C60.8217 0 52.5017 13.096 52.5017 16.896Z"/>
</svg>
